<svg width="24" height="24" viewBox="0 0 24 24" fill="none" xmlns="http://www.w3.org/2000/svg">
<path d="M10 12.9999C10.4295 13.574 10.9774 14.0491 11.6066 14.3928C12.2357 14.7366 12.9315 14.941 13.6467 14.9922C14.3618 15.0435 15.0796 14.9403 15.7513 14.6897C16.4231 14.4391 17.0331 14.047 17.54 13.5399L20.54 10.5399C21.4508 9.59689 21.9548 8.33388 21.9434 7.0229C21.932 5.71191 21.4061 4.45785 20.4791 3.53081C19.5521 2.60377 18.298 2.07793 16.987 2.06653C15.676 2.05514 14.413 2.55911 13.47 3.4699L11.75 5.1799" stroke="#404040" stroke-width="1.99832" stroke-linecap="round" stroke-linejoin="round"/>
<path d="M14.0002 10.9999C13.5707 10.4258 13.0228 9.95074 12.3936 9.60698C11.7645 9.26322 11.0687 9.0588 10.3535 9.00759C9.63841 8.95637 8.92061 9.05955 8.24885 9.31014C7.5771 9.56072 6.96709 9.95285 6.4602 10.4599L3.4602 13.4599C2.54941 14.4029 2.04544 15.6659 2.05683 16.9769C2.06822 18.2879 2.59407 19.542 3.52111 20.469C4.44815 21.3961 5.70221 21.9219 7.01319 21.9333C8.32418 21.9447 9.58719 21.4407 10.5302 20.5299L12.2402 18.8199" stroke="#404040" stroke-width="1.99832" stroke-linecap="round" stroke-linejoin="round"/>
</svg>
