<svg width="38" height="37" viewBox="0 0 38 37" fill="none" xmlns="http://www.w3.org/2000/svg">
<path d="M28.565 12.3277C28.565 9.88724 27.5956 7.54673 25.8699 5.82106C24.1442 4.09539 21.8037 3.12592 19.3632 3.12592C16.9228 3.12592 14.5823 4.09539 12.8566 5.82106C11.1309 7.54673 10.1614 9.88724 10.1614 12.3277C10.1614 23.0631 5.56055 26.1304 5.56055 26.1304H33.1659C33.1659 26.1304 28.565 23.0631 28.565 12.3277Z" stroke="#A0A0A0" stroke-width="3.87119" stroke-linecap="round" stroke-linejoin="round"/>
<path d="M22.0163 32.2649C21.7467 32.7293 21.3597 33.1148 20.8941 33.3828C20.4284 33.6508 19.9005 33.7918 19.3631 33.7918C18.8258 33.7918 18.2979 33.6508 17.8322 33.3828C17.3666 33.1148 16.9796 32.7293 16.71 32.2649" stroke="#A0A0A0" stroke-width="3.87119" stroke-linecap="round" stroke-linejoin="round"/>
</svg>
