<svg width="24" height="24" viewBox="0 0 24 24" fill="none" xmlns="http://www.w3.org/2000/svg">
<path d="M20 12V22H4V12" stroke="#C4B7FF" stroke-width="1.99832" stroke-linecap="round" stroke-linejoin="round"/>
<path d="M22 7.00003H2V12H22V7.00003Z" stroke="#C4B7FF" stroke-width="1.99832" stroke-linecap="round" stroke-linejoin="round"/>
<path d="M12 22V7.00003" stroke="#C4B7FF" stroke-width="1.99832" stroke-linecap="round" stroke-linejoin="round"/>
<path d="M12 7.00003H7.5C6.83696 7.00003 6.20107 6.73664 5.73223 6.2678C5.26339 5.79896 5 5.16307 5 4.50003C5 3.83699 5.26339 3.2011 5.73223 2.73226C6.20107 2.26342 6.83696 2.00003 7.5 2.00003C11 2.00003 12 7.00003 12 7.00003Z" stroke="#C4B7FF" stroke-width="1.99832" stroke-linecap="round" stroke-linejoin="round"/>
<path d="M12 7.00003H16.5C17.163 7.00003 17.7989 6.73664 18.2678 6.2678C18.7366 5.79896 19 5.16307 19 4.50003C19 3.83699 18.7366 3.2011 18.2678 2.73226C17.7989 2.26342 17.163 2.00003 16.5 2.00003C13 2.00003 12 7.00003 12 7.00003Z" stroke="#C4B7FF" stroke-width="1.99832" stroke-linecap="round" stroke-linejoin="round"/>
</svg>
