<svg width="37" height="37" viewBox="0 0 37 37" fill="none" xmlns="http://www.w3.org/2000/svg">
<path d="M32.1284 7.1073C31.341 6.31952 30.4061 5.69459 29.3771 5.26822C28.3481 4.84186 27.2452 4.62241 26.1314 4.62241C25.0175 4.62241 23.9146 4.84186 22.8856 5.26822C21.8566 5.69459 20.9217 6.31952 20.1343 7.1073L18.5001 8.74147L16.8659 7.1073C15.2754 5.51678 13.1182 4.62323 10.8689 4.62323C8.61951 4.62323 6.46229 5.51678 4.87177 7.1073C3.28124 8.69783 2.3877 10.855 2.3877 13.1044C2.3877 15.3537 3.28124 17.5109 4.87177 19.1015L6.50593 20.7356L18.5001 32.7298L30.4943 20.7356L32.1284 19.1015C32.9162 18.3141 33.5411 17.3791 33.9675 16.3501C34.3939 15.3211 34.6133 14.2182 34.6133 13.1044C34.6133 11.9906 34.3939 10.8876 33.9675 9.85863C33.5411 8.82963 32.9162 7.89472 32.1284 7.1073V7.1073Z" stroke="#F8382A" stroke-width="1.99832" stroke-linecap="round" stroke-linejoin="round"/>
</svg>
