<svg width="37" height="37" viewBox="0 0 37 37" fill="none" xmlns="http://www.w3.org/2000/svg">
<path d="M28.0003 3.08334H8.99906C8.28603 3.08334 7.70801 3.66137 7.70801 4.3744C7.70801 8.48331 9.34026 12.4239 12.2457 15.3294L14.1253 17.209C14.3119 17.3956 14.4053 17.4889 14.4721 17.5786C14.8797 18.1253 14.8797 18.8748 14.4721 19.4215C14.4053 19.5111 14.3119 19.6044 14.1253 19.7911L12.2457 21.6706C9.34027 24.5761 7.70801 28.5167 7.70801 32.6256C7.70801 33.3387 8.28603 33.9167 8.99906 33.9167H28.0003C28.7133 33.9167 29.2913 33.3387 29.2913 32.6256C29.2913 28.5167 27.6591 24.5761 24.7536 21.6706L22.8741 19.7911C22.6874 19.6044 22.5941 19.5111 22.5273 19.4215C22.1197 18.8748 22.1197 18.1253 22.5273 17.5786C22.5941 17.4889 22.6874 17.3956 22.8741 17.209L24.7536 15.3294C27.6591 12.4239 29.2913 8.48331 29.2913 4.3744C29.2913 3.66137 28.7133 3.08334 28.0003 3.08334Z" stroke="#F8382A" stroke-width="2" stroke-linecap="round" stroke-linejoin="round"/>
</svg>
