<svg width="21" height="22" viewBox="0 0 21 22" fill="none" xmlns="http://www.w3.org/2000/svg">
<path d="M6.41634 20.9999H3.66634C3.18011 20.9999 2.7138 20.7892 2.36998 20.4141C2.02616 20.039 1.83301 19.5303 1.83301 18.9999V11.9999C1.83301 11.4694 2.02616 10.9607 2.36998 10.5857C2.7138 10.2106 3.18011 9.99988 3.66634 9.99988H6.41634M12.833 7.99988V3.99988C12.833 3.20423 12.5433 2.44117 12.0276 1.87856C11.5118 1.31595 10.8124 0.999878 10.083 0.999878L6.41634 9.99988V20.9999H16.7563C17.1985 21.0053 17.6275 20.8363 17.9644 20.5239C18.3013 20.2115 18.5234 19.7768 18.5897 19.2999L19.8547 10.2999C19.8946 10.0132 19.8768 9.72056 19.8027 9.44213C19.7286 9.1637 19.5999 8.90617 19.4255 8.68739C19.2512 8.46861 19.0352 8.29381 18.7928 8.17509C18.5503 8.05638 18.2871 7.99659 18.0213 7.99988H12.833Z" stroke="#2A2C2B" stroke-width="1.99832" stroke-linecap="round" stroke-linejoin="round"/>
</svg>
