<svg width="175" height="44" viewBox="0 0 175 44" fill="none" xmlns="http://www.w3.org/2000/svg">
<path d="M68.7439 31.6074L75.4469 12.3148H80.6461L71.6228 35.9902H65.7791L56.7988 12.3148H62.0409L68.7439 31.6074Z" fill="black"/>
<path d="M86.5756 9.17817C85.6876 9.17817 84.9428 8.87739 84.3413 8.27584C83.7397 7.67429 83.4389 6.92951 83.4389 6.0415C83.4389 5.1535 83.7397 4.40872 84.3413 3.80717C84.9428 3.20562 85.6876 2.90484 86.5756 2.90484C87.435 2.90484 88.1654 3.20562 88.767 3.80717C89.3685 4.40872 89.6693 5.1535 89.6693 6.0415C89.6693 6.92951 89.3685 7.67429 88.767 8.27584C88.1654 8.87739 87.435 9.17817 86.5756 9.17817ZM88.9818 12.3148V35.9902H84.0835V12.3148H88.9818Z" fill="black"/>
<path d="M104.88 11.9281C106.742 11.9281 108.403 12.3148 109.864 13.0883C111.354 13.8617 112.514 15.0075 113.345 16.5257C114.175 18.0439 114.591 19.8772 114.591 22.0256V35.9902H109.735V22.756C109.735 20.6363 109.205 19.0178 108.146 17.9007C107.086 16.7549 105.639 16.1819 103.806 16.1819C101.972 16.1819 100.512 16.7549 99.423 17.9007C98.3632 19.0178 97.8332 20.6363 97.8332 22.756V35.9902H92.9349V12.3148H97.8332V15.0218C98.6353 14.0479 99.6522 13.2888 100.884 12.7445C102.144 12.2002 103.476 11.9281 104.88 11.9281Z" fill="black"/>
<path d="M117.455 24.131C117.455 21.6962 117.942 19.5621 118.916 17.7288C119.919 15.8668 121.294 14.4346 123.041 13.432C124.788 12.4294 126.794 11.9281 129.057 11.9281C131.921 11.9281 134.284 12.6156 136.146 13.9906C138.037 15.3369 139.312 17.2705 139.97 19.7913H134.685C134.256 18.6168 133.568 17.7001 132.623 17.0413C131.678 16.3825 130.489 16.053 129.057 16.053C127.051 16.053 125.447 16.7692 124.244 18.2014C123.07 19.6051 122.482 21.5816 122.482 24.131C122.482 26.6805 123.07 28.6713 124.244 30.1036C125.447 31.5358 127.051 32.252 129.057 32.252C131.892 32.252 133.769 31.0059 134.685 28.5138H139.97C139.283 30.92 137.994 32.8392 136.103 34.2715C134.213 35.6751 131.864 36.3769 129.057 36.3769C126.794 36.3769 124.788 35.8756 123.041 34.873C121.294 33.8418 119.919 32.4095 118.916 30.5762C117.942 28.7143 117.455 26.5659 117.455 24.131Z" fill="black"/>
<path d="M147.533 1.97388V35.9902H142.634V1.97388H147.533Z" fill="black"/>
<path d="M150.397 24.0451C150.397 21.6675 150.884 19.5621 151.858 17.7288C152.861 15.8955 154.207 14.4775 155.897 13.475C157.616 12.4437 159.507 11.9281 161.569 11.9281C163.431 11.9281 165.049 12.3005 166.424 13.0453C167.828 13.7614 168.945 14.6637 169.776 15.7523V12.3148H174.717V35.9902H169.776V32.4668C168.945 33.584 167.814 34.5149 166.381 35.2597C164.949 36.0045 163.316 36.3769 161.483 36.3769C159.449 36.3769 157.587 35.8613 155.897 34.83C154.207 33.7702 152.861 32.3093 151.858 30.4473C150.884 28.5567 150.397 26.4226 150.397 24.0451ZM169.776 24.131C169.776 22.4982 169.432 21.0803 168.745 19.8772C168.086 18.6741 167.212 17.7574 166.124 17.1272C165.035 16.497 163.861 16.1819 162.6 16.1819C161.34 16.1819 160.165 16.497 159.077 17.1272C157.988 17.7288 157.1 18.6311 156.413 19.8342C155.754 21.0087 155.425 22.4123 155.425 24.0451C155.425 25.6779 155.754 27.1101 156.413 28.3419C157.1 29.5736 157.988 30.5189 159.077 31.1778C160.194 31.808 161.369 32.1231 162.6 32.1231C163.861 32.1231 165.035 31.808 166.124 31.1778C167.212 30.5476 168.086 29.6309 168.745 28.4278C169.432 27.1961 169.776 25.7638 169.776 24.131Z" fill="black"/>
<path d="M45.8565 4.0259C40.6491 -1.09685 32.1966 -1.09685 26.9138 4.0259L24.8762 6.03045L23.2158 4.39711C18.0085 -0.725635 9.556 -0.725635 4.27318 4.39711C-0.93416 9.51986 -0.93416 17.835 4.27318 23.032L8.65037 27.3381L25.1026 43.1518L40.4982 28.0063L45.8565 22.7351C48.3469 20.2851 49.7808 16.9441 49.7808 13.4547C49.7808 9.81683 48.4224 6.47591 45.8565 4.0259ZM6.99006 6.99561C8.87678 5.13954 11.2918 4.24863 13.7822 4.24863C16.2727 4.24863 18.6877 5.13954 20.5744 6.99561L22.2347 8.62895L8.65037 21.9926L6.99006 20.3593C3.29209 16.6472 3.29209 10.6335 6.99006 6.99561ZM25.1026 37.8063L11.3672 24.5911L24.9516 11.2274L38.536 24.5911L37.8568 25.2593L25.1026 37.8063ZM43.2151 19.9881L41.1774 21.9926L27.593 8.62895L29.6307 6.62439C33.4041 2.91226 39.4416 2.91226 43.2151 6.62439C45.0263 8.40622 46.0074 10.782 46.0074 13.3062C46.0074 15.8305 45.0263 18.2063 43.2151 19.9881Z" fill="#A6A4EA"/>
</svg>
